<?xml version="1.0" encoding="utf-8"?>
<!-- Generator: Adobe Illustrator 15.1.0, SVG Export Plug-In . SVG Version: 6.00 Build 0)  -->
<!DOCTYPE svg PUBLIC "-//W3C//DTD SVG 1.1//EN" "http://www.w3.org/Graphics/SVG/1.1/DTD/svg11.dtd">
<svg version="1.1" id="Layer_1" xmlns="http://www.w3.org/2000/svg" xmlns:xlink="http://www.w3.org/1999/xlink" x="0px" y="0px"
	 width="249.463px" height="53.864px" viewBox="0 0 249.463 53.864" enable-background="new 0 0 249.463 53.864"
	 xml:space="preserve">
<polygon fill-rule="evenodd" clip-rule="evenodd" fill="#FFFFFF" points="38.695,52.108 40.495,53.864 41.976,52.108 49.44,52.108 
	51.066,49.665 39.665,49.665 39.34,49.309 35.806,49.309 35.597,49.665 1.601,49.665 0,52.108 38.695,52.108 "/>
<path fill-rule="evenodd" clip-rule="evenodd" fill="#FFFFFF" d="M37.757,47.112h-4.685l-1.224-1.229H3.958l1.61-2.458h23.864
	l0.092-0.542h4.701l0.13,0.542h20.675l-1.634,2.458H36.816C36.816,45.883,36.924,46.516,37.757,47.112L37.757,47.112z"/>
<polygon fill-rule="evenodd" clip-rule="evenodd" fill="#FFFFFF" points="31.488,39.686 57.539,39.686 59.152,37.238 31.45,37.238 
	31.825,36.652 23.547,36.652 23.173,37.238 9.688,37.238 8.075,39.686 25.719,39.686 26.833,40.747 32.338,40.747 31.488,39.686 "/>
<path fill-rule="evenodd" clip-rule="evenodd" fill="#FFFFFF" d="M34.591,33.216h27.208l1.617-2.458H36.24l-0.196-0.519h-8.165
	l-0.31,0.519H13.953l-1.608,2.458h12.624c0,0,0.842,0.197,0.252,1.027h8.467L34.591,33.216L34.591,33.216z"/>
<path fill-rule="evenodd" clip-rule="evenodd" fill="#FFFFFF" d="M39.036,26.979h26.787l1.627-2.448H41.345l-0.158-0.514h-9
	l-0.338,0.514H17.982l-1.613,2.448h12.953c0,0,0.667,0.317,0.202,0.965h9.117C38.64,27.943,38.649,27.55,39.036,26.979
	L39.036,26.979z"/>
<path fill-rule="evenodd" clip-rule="evenodd" fill="#FFFFFF" d="M43.099,21.728h-9.253c0.509-0.842-0.725-0.981-0.725-0.981H20.336
	l1.596-2.457H36.14l0.355-0.564h9.309l0.406,0.564H71.41l-1.632,2.457H43.651C43.651,20.746,43.257,21.176,43.099,21.728
	L43.099,21.728z"/>
<path fill-rule="evenodd" clip-rule="evenodd" fill="#FFFFFF" d="M49.588,14.588h24.361l1.615-2.453H51.671l-0.605-1.063h-9.986
	l-0.768,1.063h-14.2l-1.615,2.453h12.636c0,0,1.507,0.007,0.826,1.01h11.257C49.216,15.599,49.255,15.253,49.588,14.588
	L49.588,14.588z"/>
<path fill-rule="evenodd" clip-rule="evenodd" fill="#FFFFFF" d="M52.017,5.961h27.508l-1.62,2.453H54.426
	c-0.66,0-1.104,1.027-1.104,1.027H42.189c0.564-0.974-0.674-1.027-0.674-1.027H28.462l1.593-2.453h20.563l0.864-0.792l2.066-2.789
	h-0.497L54.899,0h1.411l-1.716,2.381h-0.42l-2.251,2.884L52.017,5.961L52.017,5.961z"/>
<path fill-rule="evenodd" clip-rule="evenodd" fill="#FFFFFF" d="M95.572,6.081l-6.466,9.713H83.83l-4.455,6.628h5.541
	L69.121,46.166c0,0-1.224,1.891-1.224,4.598c0,2.693,3.384,3.101,3.384,3.101h12.015l3.787-6.883h-5.95c0,0-2.299-0.268-1.226-2.141
	c1.09-1.911,14.906-22.419,14.906-22.419h6.969l3.822-6.628h-6.38l6.409-9.713H95.572L95.572,6.081z"/>
<polygon fill-rule="evenodd" clip-rule="evenodd" fill="#FFFFFF" points="133.06,53.864 163.617,6.081 153.395,6.081 
	122.854,53.864 133.06,53.864 "/>
<polygon fill-rule="evenodd" clip-rule="evenodd" fill="#FFFFFF" points="218.916,53.864 249.463,6.081 239.263,6.081 
	208.71,53.864 218.916,53.864 "/>
<path fill-rule="evenodd" clip-rule="evenodd" fill="#FFFFFF" d="M128.381,38.347h-24.577c0,0-2.506,3.062-2.788,5.668
	c0,0,0,2.151,2.609,2.151c2.613,0,18.903,0,18.903,0l-4.954,7.698h-15.392c0,0-11.688,0-11.688-6.883c0,0-0.11-5.14,8.46-17.08
	c8.578-11.951,14.444-12.41,24.298-12.41c9.852,0,12.522,3.127,12.213,5.724C135.136,26.182,134.792,27.74,128.381,38.347
	L128.381,38.347z M107.998,31.657H124.2c0,0,1.812-3.104,2.356-5.667c0.554-2.568-2.417-3.247-5.734-3.247
	C117.528,22.743,112.453,23.091,107.998,31.657L107.998,31.657z"/>
<path fill-rule="evenodd" clip-rule="evenodd" fill="#FFFFFF" d="M213.341,38.347h-24.573c0,0-2.508,3.062-2.784,5.668
	c0,0,0,2.151,2.606,2.151c2.609,0,18.919,0,18.919,0l-4.964,7.698h-15.388c0,0-11.697,0-11.697-6.883c0,0-0.12-5.14,8.464-17.08
	c8.572-11.951,14.443-12.41,24.294-12.41c9.853,0,12.51,3.127,12.229,5.724C220.103,26.182,219.757,27.74,213.341,38.347
	L213.341,38.347z M192.968,31.657h16.196c0,0,1.819-3.104,2.361-5.667c0.545-2.568-2.425-3.247-5.732-3.247
	C202.485,22.743,197.414,23.091,192.968,31.657L192.968,31.657z"/>
<path fill-rule="evenodd" clip-rule="evenodd" fill="#FFFFFF" d="M153.605,44.015c0,0,0,2.151,2.59,2.151c2.618,0,16.482,0,16.482,0
	l-4.951,7.698h-12.957c0,0-12.609,0.394-11.685-6.883c0,0-0.131-5.14,8.445-17.08c0,0,7.763-12.41,24.513-12.41
	c16.749,0,11.072,0,11.072,0l-5.001,7.615c0,0-8.104,0-8.914,0c-0.813,0-7.285,0.677-13.086,7.159
	C154.311,38.745,153.848,41.841,153.605,44.015L153.605,44.015z"/>
<path fill-rule="evenodd" clip-rule="evenodd" fill="#FFFFFF" d="M222.844,53.898l2-3.148h0.734l-0.614,2.658l2.779-2.658h0.72
	l-2.005,3.148h-0.482l1.178-1.866c0.05-0.054,0.113-0.165,0.211-0.312c0.101-0.141,0.202-0.308,0.314-0.476l-2.767,2.654h-0.506
	l0.604-2.654l-0.059,0.102c-0.054,0.066-0.13,0.187-0.222,0.349c-0.09,0.154-0.175,0.27-0.215,0.337l-1.185,1.866H222.844
	L222.844,53.898z"/>
<polygon fill-rule="evenodd" clip-rule="evenodd" fill="#FFFFFF" points="227.392,53.898 227.684,53.432 228.226,53.432 
	227.927,53.898 227.392,53.898 "/>
<path fill-rule="evenodd" clip-rule="evenodd" fill="#FFFFFF" d="M231.924,51.12h1.247c0.177,0,0.299,0.014,0.381,0.061
	c0.137,0.083,0.137,0.231,0,0.453c-0.134,0.215-0.295,0.364-0.491,0.441c-0.188,0.076-0.398,0.12-0.642,0.12h-1.183L231.924,51.12
	L231.924,51.12z M230.154,53.898l0.854-1.349h1.169c0.21,0,0.345,0.02,0.422,0.058c0.129,0.073,0.129,0.212,0.006,0.409
	l-0.299,0.523c-0.076,0.129-0.115,0.206-0.129,0.259c-0.022,0.033-0.029,0.077-0.029,0.1h0.624l0.048-0.071
	c-0.058-0.029-0.077-0.091-0.034-0.193c0.008-0.053,0.058-0.153,0.125-0.263l0.255-0.432c0.104-0.178,0.146-0.307,0.124-0.39
	c-0.026-0.086-0.091-0.148-0.199-0.197c0.204-0.076,0.398-0.173,0.568-0.292c0.169-0.121,0.317-0.28,0.43-0.456
	c0.233-0.375,0.222-0.61-0.05-0.744c-0.146-0.078-0.357-0.11-0.65-0.11h-1.74l-2.011,3.148H230.154L230.154,53.898z"/>
<polygon fill-rule="evenodd" clip-rule="evenodd" fill="#FFFFFF" points="233.527,53.898 233.828,53.432 234.366,53.432 
	234.063,53.898 233.527,53.898 "/>
</svg>
