<?xml version="1.0" encoding="utf-8"?>
<!-- Generator: Adobe Illustrator 16.0.0, SVG Export Plug-In . SVG Version: 6.00 Build 0)  -->
<!DOCTYPE svg PUBLIC "-//W3C//DTD SVG 1.1//EN" "http://www.w3.org/Graphics/SVG/1.1/DTD/svg11.dtd">
<svg version="1.1" id="copyright" xmlns="http://www.w3.org/2000/svg" xmlns:xlink="http://www.w3.org/1999/xlink" x="0px" y="0px"
	 width="339.436px" height="138.352px" viewBox="0 0 339.436 138.352" enable-background="new 0 0 339.436 138.352"
	 xml:space="preserve">
<g>
	<g>
		<path fill="#FFFFFF" d="M105.484,4.936c0,0-69.054-16.493-99.969,10.816c0,0-24.22,22.676,28.855,35.559
			c0,0-38.132-13.912-16.488-33.494C17.882,17.817,42.098-3.311,105.484,4.936z"/>
		<path fill="#FFFFFF" d="M98.268,16.273c0,0-44.312-12.888-72.351,7.624c0,0-18.856,16.078,21.851,25.357
			c0,0-30.914-10.826-10.306-26.281C37.461,22.974,60.131,9.572,98.268,16.273z"/>
		<path fill="#FFFFFF" d="M59.106,48.736c0,0-27.827-10.308-10.821-20.614c0,0,18.033-10.306,47.915,0.518
			c0,0-26.788-8.251-45.336,3.089C50.864,31.73,40.555,39.458,59.106,48.736z"/>
		<path fill="#FFFFFF" d="M69.925,37.616v63.382v2.067c0,0,0,1.027,1.548,1.027c0,0,2.062,0,2.062-1.542V37.616
			c0,0-0.51-1.543-2.062-1.543C71.473,36.072,69.925,35.556,69.925,37.616z"/>
		<path fill="#FFFFFF" d="M87.451,60.117v42.26c0,0-0.518,1.715,1.54,1.715c0,0,2.062,1.034,2.062-3.094V73.692
			c0,0,0.513-11.855,12.37-12.37c0,0,11.336-1.027,12.881,11.337l0.515,29.372c0,0-0.515,2.062,1.548,2.062
			c0,0,1.548,0.513,1.548-2.578V72.143c0,0,0-12.367-16.491-14.943c0,0-7.73,0.518-12.37,7.21V59.26c0,0,0-1.543-1.027-1.543
			c-0.163,0-0.846,0-1.035,0C88.991,57.717,87.451,57.717,87.451,60.117z"/>
		<path fill="#FFFFFF" d="M137.945,61.322v32.981c0,0,1.033,8.763,11.859,9.79c0,0,7.213,0.513,9.783-4.125
			c0,0,0.518-1.543-1.03-2.057c0,0-1.028-0.513-2.571,1.033c0,0-6.7,5.149-11.85-0.52c0,0-3.099-2.06-3.099-5.667V61.322h9.791
			c0,0,1.031,0,1.031-2.062c0,0,0-1.543-1.54-1.543h-9.282V37.616c0,0,0.517-2.06-1.545-1.543c0,0-1.548,0-1.548,2.063v19.582
			h-8.756c0,0-2.063-0.518-2.063,1.543c0,0-0.518,2.062,2.575,2.062H137.945z"/>
		<path fill="#FFFFFF" d="M207.515,93.271c-8.761,12.879-21.125,10.821-21.125,10.821c-20.617-0.518-22.159-21.642-22.159-21.642
			c0-19.585,15.973-23.709,15.973-23.709c18.033-4.631,26.276,8.248,26.276,8.248c2.584,3.093,1.034,4.125,1.034,4.125
			L171.44,92.243c0,0,4.642,9.788,19.066,8.755c0,0,8.764-1.031,13.401-8.755c0,0,1.543-3.095,3.607-2.065
			C207.515,90.177,208.965,91.144,207.515,93.271z M203.907,69.565c0,0-10.306-14.937-27.825-4.636c0,0-13.396,9.274-6.187,24.739
			L203.907,69.565z"/>
		<path fill="#FFFFFF" d="M215.248,37.616v53.081c0,0-1.548,12.877,12.877,13.396c0,0,1.549,0,1.549-2.062
			c0,0-0.518-0.516-1.549-1.033c0,0-7.208,0.517-9.276-6.695l-0.516-56.167c0,0,0.516-2.063-1.545-2.063
			C216.788,36.072,215.248,35.556,215.248,37.616z"/>
		<path fill="#FFFFFF" d="M242.034,58.775c0,0,0-1.031-1.542-1.031c0,0-1.544,0-1.544,2.062v42.769c0,0,0,1.551,2.06,1.551
			c0,0,1.026-0.034,1.026-2.062l0.523-29.895c1.027-10.301,11.852-10.819,11.852-10.819s11.338-1.028,13.399,10.819v30.405
			c0,0,0,1.551,1.543,1.551c0,0,1.545,0.509,1.545-2.062V73.202c0,0,1.03-11.333,12.882-11.851c0,0,11.334,0.518,12.885,12.369
			v27.832c0,0,0,2.575,1.542,2.575c0,0,1.551,0.509,1.551-3.093V72.17c0,0-1.037-13.915-15.978-14.427c0,0-9.273-1.028-13.917,8.76
			h-0.51c0,0-4.122-8.786-13.914-8.786c0,0-7.729-1.038-12.88,5.666h-0.523V58.775z"/>
		<path fill="#009CD5" d="M303.874,88.635"/>
		<g>
			<g>
				<path fill="#FFFFFF" d="M325.004,118.855c2.234,0,4.468,0,6.702,0c0.431,0,0.431-0.668,0-0.668c-2.234,0-4.468,0-6.702,0
					C324.573,118.187,324.573,118.855,325.004,118.855L325.004,118.855z"/>
			</g>
		</g>
		<path fill="none" stroke="#009CD5" stroke-width="0.668" stroke-miterlimit="10" d="M170.412,120.067"/>
		<path fill="#FFFFFF" d="M317.789,73.177c11.854-4.123,18.039,5.15,18.039,5.15v-5.668c0-9.276-9.79-11.337-9.79-11.337
			c-6.187-1.027-11.854,3.088-11.854,3.088c-1.545,1.548-2.062,0.52-2.062,0.52c-1.547-1.546,0.518-3.093,0.518-3.093
			c6.186-5.668,13.912-3.604,13.912-3.604c11.333,2.576,12.884,13.395,12.884,13.395v30.924c0,2.055-2.065,1.542-2.065,1.542
			c-1.03,0-1.542-1.027-1.542-1.027V97.91c-2.581,5.155-10.824,6.182-10.824,6.182c-11.342,0-15.975-7.729-15.975-7.729
			c-4.124-9.279,0.518-16.493,0.518-16.493C313.154,74.204,317.789,73.177,317.789,73.177z M323.252,75.608
			c0,0-11.649,0.139-12.677,11.477c0,0-1.028,13.396,13.397,13.914c0,0,12.367-1.544,11.855-13.396
			C335.828,87.603,335.313,76.27,323.252,75.608z"/>
		<g>
			<g>
				<path fill="#FFFFFF" d="M85.107,120.352c-4.402-4.272-10.765-1.127-10.896,4.759c-0.133,5.969,7.452,8.708,11.416,4.465
					c0.293-0.314-0.178-0.788-0.473-0.473c-3.68,3.939-10.212,1.304-10.275-3.993c-0.064-5.357,5.897-8.032,9.756-4.287
					C84.943,121.125,85.417,120.653,85.107,120.352L85.107,120.352z"/>
			</g>
		</g>
		<path fill="none" stroke="#FFFFFF" stroke-width="0.668" stroke-miterlimit="10" d="M116.818,124.966
			c0,3.553-2.889,6.437-6.436,6.437c-3.562,0-6.443-2.884-6.443-6.437c0-3.558,2.881-6.445,6.443-6.445
			C113.93,118.521,116.818,121.408,116.818,124.966z"/>
		<g>
			<g>
				<path fill="#FFFFFF" d="M136.579,118.521c0,4.294,0,8.588,0,12.882c0,0.431,0.668,0.431,0.668,0c0-4.294,0-8.588,0-12.882
					C137.247,118.09,136.579,118.09,136.579,118.521L136.579,118.521z"/>
			</g>
		</g>
		<g>
			<g>
				<path fill="#FFFFFF" d="M145.496,131.403c0-2.05,0-4.1,0-6.149c0-1.379,0.283-3.018-0.198-4.344
					c-1.635-4.499-7.847-2.932-8.708,1.127c-0.089,0.42,0.555,0.599,0.645,0.178c0.928-4.382,7.593-4.397,7.593,0.169
					c0,3.006,0,6.012,0,9.018C144.828,131.833,145.496,131.833,145.496,131.403L145.496,131.403z"/>
			</g>
		</g>
		<g>
			<g>
				<path fill="#FFFFFF" d="M292.205,118.521c0,4.294,0,8.588,0,12.882c0,0.431,0.668,0.431,0.668,0c0-4.294,0-8.588,0-12.882
					C292.873,118.09,292.205,118.09,292.205,118.521L292.205,118.521z"/>
			</g>
		</g>
		<g>
			<g>
				<path fill="#FFFFFF" d="M301.12,131.403c0-2.05,0-4.1,0-6.149c0-1.378,0.284-3.018-0.199-4.344
					c-1.636-4.493-7.849-2.938-8.704,1.127c-0.088,0.42,0.556,0.599,0.645,0.178c0.923-4.386,7.591-4.394,7.591,0.169
					c0,3.006,0,6.012,0,9.018C300.452,131.833,301.12,131.833,301.12,131.403L301.12,131.403z"/>
			</g>
		</g>
		<path fill="none" stroke="#FFFFFF" stroke-width="0.668" stroke-miterlimit="10" d="M191.54,118.009v9.79c0,0,0,3.604,4.634,3.604
			c0,0,4.125,0,4.125-4.633v-8.761"/>
		<path fill="none" stroke="#FFFFFF" stroke-width="0.668" stroke-miterlimit="10" d="M220.4,111.822v16.491
			c0,0,0,3.089,3.089,3.089"/>
		<path fill="none" stroke="#FFFFFF" stroke-width="0.668" stroke-miterlimit="10" d="M245.653,111.822v14.948
			c0,0,0,3.604,1.537,4.12c0,0,2.07,1.027,4.122-1.033"/>
		
			<line fill="none" stroke="#FFFFFF" stroke-width="0.668" stroke-miterlimit="10" x1="270.896" y1="118.521" x2="270.896" y2="131.917"/>
		<g>
			<g>
				<path fill="#FFFFFF" d="M329.82,122.904c-0.28,5.211-7.812,5.209-8.093,0c-0.123-2.29,1.941-3.936,4.051-4.049
					C328.067,118.732,329.707,120.797,329.82,122.904c0.023,0.428,0.691,0.431,0.668,0c-0.144-2.669-2.039-4.573-4.71-4.717
					c-2.666-0.144-4.586,2.262-4.719,4.717c-0.144,2.667,2.266,4.579,4.719,4.71c2.663,0.143,4.578-2.258,4.71-4.71
					C330.512,122.474,329.844,122.476,329.82,122.904z"/>
			</g>
		</g>
		<g>
			<g>
				<path fill="#FFFFFF" d="M325.778,127.615c4.359,0.235,6.561,5.051,3.779,8.467c-3.173,3.898-8.627,0.625-8.855-3.648
					c-0.022-0.429-0.691-0.431-0.668,0c0.267,4.994,5.607,7.769,9.604,4.512c4.227-3.443,0.943-9.74-3.86-9.999
					C325.348,126.923,325.35,127.592,325.778,127.615L325.778,127.615z"/>
			</g>
		</g>
		<path fill="none" stroke="#FFFFFF" stroke-width="0.668" stroke-miterlimit="10" d="M170.412,120.588
			c-0.517-1.551-1.152-2.067-2.578-2.067c-1.42,0-2.575,1.152-2.575,2.577c0,1.545,1.155,2.573,2.575,2.573h0.258
			c2.137,0,3.863,1.732,3.863,3.867c0,2.132-1.726,3.864-3.863,3.864c-2.132,0-3.861-1.732-3.861-3.864"/>
		<path fill="none" stroke="#FFFFFF" stroke-width="0.668" stroke-miterlimit="10" d="M164.231,128.313"/>
		<path fill="none" stroke="#FFFFFF" stroke-width="0.668" stroke-miterlimit="10" d="M320.368,131.403"/>
		
			<line fill="none" stroke="#FFFFFF" stroke-width="0.668" stroke-miterlimit="10" x1="242.034" y1="118.521" x2="249.26" y2="118.521"/>
		<path fill="none" stroke="#FFFFFF" stroke-width="0.668" stroke-miterlimit="10" d="M271.926,112.855
			c0,0.563-0.462,1.022-1.03,1.022c-0.564,0-1.035-0.459-1.035-1.022c0-0.574,0.47-1.033,1.035-1.033
			C271.463,111.822,271.926,112.281,271.926,112.855z"/>
	</g>
</g>
</svg>
